<?xml version="1.0" standalone="no"?>
<!DOCTYPE svg PUBLIC "-//W3C//DTD SVG 20010904//EN"
 "http://www.w3.org/TR/2001/REC-SVG-20010904/DTD/svg10.dtd">
<svg version="1.0" xmlns="http://www.w3.org/2000/svg"
 width="649.000000pt" height="649.000000pt" viewBox="0 0 649.000000 649.000000"
 preserveAspectRatio="xMidYMid meet">
<metadata>
Created by potrace 1.11, written by Peter Selinger 2001-2013
</metadata>
<g transform="translate(0.000000,649.000000) scale(0.100000,-0.100000)"
fill="#000000" stroke="none">
<path d="M4501 5638 c30 -94 35 -161 25 -323 -2 -22 -6 -48 -10 -57 -4 -9 -5
-21 -2 -27 4 -5 2 -12 -3 -16 -5 -3 -8 -14 -6 -25 2 -11 0 -22 -5 -25 -5 -3
-7 -14 -5 -25 2 -11 0 -20 -4 -20 -5 0 -9 -11 -10 -25 -3 -48 -4 -55 -13 -55
-5 0 -6 -11 -4 -25 3 -14 1 -25 -3 -25 -8 0 -10 -23 -11 -150 -1 -90 1 -113
16 -202 4 -31 3 -38 -10 -38 -9 0 -15 3 -14 8 3 9 -44 62 -114 130 -32 30 -55
59 -51 65 3 5 2 7 -4 4 -5 -3 -33 18 -61 47 -28 30 -53 52 -56 48 -3 -3 -6 3
-6 13 0 10 -3 15 -6 12 -4 -4 -20 8 -37 26 -16 17 -24 23 -17 12 7 -11 -1 -5
-19 13 -17 18 -31 29 -31 25 0 -4 -7 2 -16 13 -8 10 -13 12 -9 4 4 -8 -3 -4
-14 9 -12 13 -21 19 -21 15 0 -5 -5 -1 -11 9 -6 9 -14 15 -20 12 -5 -4 -9 -1
-9 4 0 6 -7 11 -15 11 -9 0 -18 7 -21 15 -4 8 -10 12 -15 9 -5 -3 -12 2 -15
10 -3 9 -10 14 -14 11 -5 -3 -15 1 -23 9 -8 8 -17 12 -21 9 -3 -4 -6 -1 -6 6
0 7 -4 9 -10 6 -5 -3 -10 -1 -10 5 0 6 -4 9 -9 6 -5 -3 -12 1 -15 10 -4 9 -9
14 -13 11 -3 -4 -19 3 -36 15 -17 12 -27 17 -23 10 5 -8 2 -10 -8 -6 -9 3 -16
10 -16 16 0 5 -4 6 -10 3 -5 -3 -10 -1 -10 5 0 6 -4 8 -10 5 -5 -3 -10 -1 -10
5 0 6 -4 8 -10 5 -5 -3 -10 -1 -10 5 0 6 -5 8 -10 5 -6 -4 -18 -1 -26 6 -9 7
-25 15 -37 16 -12 2 -24 8 -28 15 -4 6 -12 7 -18 4 -6 -4 -11 -3 -11 3 0 6 -7
8 -15 5 -8 -4 -15 -1 -15 6 0 6 -4 8 -10 5 -5 -3 -10 -2 -10 3 0 6 -9 8 -20 5
-11 -3 -20 -1 -20 4 0 5 -6 10 -12 11 -7 0 -23 3 -35 6 -23 6 -56 14 -83 21
-8 2 -15 4 -15 5 0 1 -9 3 -20 5 -11 3 -33 7 -50 10 -16 3 -43 7 -60 9 -16 2
-30 5 -30 6 0 1 -13 4 -30 6 -176 22 -463 21 -605 -1 -19 -4 -46 -7 -60 -9
-14 -2 -25 -4 -25 -5 0 -1 -13 -4 -30 -7 -32 -4 -67 -11 -75 -14 -3 -1 -9 -3
-15 -5 -5 -1 -12 -3 -15 -4 -3 -2 -12 -4 -20 -6 -8 -2 -26 -7 -40 -10 -14 -3
-32 -8 -40 -10 -8 -2 -15 -4 -15 -5 0 -1 -11 -4 -25 -6 -14 -3 -26 -9 -28 -14
-2 -5 -10 -6 -18 -3 -8 3 -14 1 -14 -4 0 -5 -10 -10 -22 -10 -13 -1 -24 -7
-26 -12 -2 -5 -10 -7 -18 -4 -8 3 -14 0 -14 -7 0 -6 -4 -9 -9 -6 -10 7 -71
-23 -83 -39 -4 -5 -8 -6 -8 -1 0 5 -10 1 -22 -10 -12 -10 -18 -13 -14 -6 4 7
-12 1 -36 -13 -24 -14 -51 -28 -60 -32 -10 -3 -18 -10 -18 -15 0 -5 -5 -6 -10
-3 -6 3 -13 -1 -16 -9 -3 -9 -10 -14 -14 -11 -5 3 -15 -1 -22 -9 -8 -7 -24
-17 -36 -20 -12 -4 -22 -12 -22 -17 0 -5 -4 -9 -10 -9 -12 0 -76 -44 -98 -67
-9 -11 -12 -12 -7 -4 13 20 -88 -63 -139 -114 -22 -22 -36 -33 -31 -25 8 13 6
13 -8 1 -9 -7 -14 -18 -10 -24 3 -5 2 -7 -4 -4 -10 7 -100 -81 -96 -94 2 -4
-15 -22 -37 -39 -22 -18 -40 -38 -40 -46 0 -9 -5 -12 -10 -9 -5 3 -10 0 -10
-8 0 -8 -7 -18 -16 -21 -8 -3 -13 -10 -10 -15 3 -5 -1 -12 -10 -15 -24 -9 -26
-8 -18 17 4 12 7 27 7 34 0 7 5 9 10 6 6 -4 8 0 4 10 -3 10 -3 17 1 17 8 0 34
55 32 66 -1 4 2 10 7 13 16 12 52 88 45 96 -4 5 -1 5 6 1 11 -6 17 5 13 27 0
4 3 7 8 7 11 0 76 101 73 113 -1 4 5 7 13 7 8 0 15 6 15 13 0 7 9 18 21 25 12
7 19 16 16 19 -10 10 141 147 228 207 22 16 33 25 25 22 -8 -3 -23 -9 -32 -12
-10 -4 -18 -11 -18 -16 0 -5 -4 -6 -10 -3 -5 3 -10 1 -10 -5 0 -6 -4 -8 -10
-5 -5 3 -10 1 -10 -5 0 -6 -4 -9 -9 -6 -5 3 -19 -4 -33 -17 -13 -12 -27 -22
-31 -22 -8 0 -110 -78 -149 -114 -15 -14 -25 -29 -22 -33 3 -5 0 -7 -8 -6 -7
2 -12 -3 -10 -10 1 -8 -2 -11 -7 -8 -5 3 -14 -1 -21 -9 -7 -8 -9 -15 -5 -15 3
0 -8 -12 -25 -26 -17 -15 -29 -29 -26 -31 3 -3 -7 -16 -22 -30 -15 -13 -20
-21 -12 -17 8 4 0 -7 -18 -25 -30 -30 -37 -43 -33 -64 1 -5 -2 -6 -7 -3 -9 5
-64 -86 -62 -100 1 -4 -3 -10 -8 -13 -6 -3 -12 -13 -14 -21 -2 -8 -9 -21 -16
-28 -7 -8 -10 -18 -7 -23 4 -5 2 -9 -4 -9 -10 0 -27 -38 -23 -52 1 -5 -3 -8
-9 -8 -5 0 -8 -3 -5 -8 6 -10 -22 -47 -31 -39 -3 4 -8 18 -9 32 -5 44 -27 135
-33 135 -3 0 -7 14 -8 32 -1 17 -7 35 -14 38 -6 4 -10 10 -9 14 5 19 -13 65
-22 60 -7 -4 -8 -2 -4 4 4 6 0 25 -9 42 -24 46 -36 82 -26 75 10 -5 19 15 27
60 6 31 -13 105 -26 105 -6 0 -9 3 -9 8 3 19 -2 33 -11 27 -5 -3 -8 0 -5 7 3
7 -20 40 -50 72 -30 33 -55 56 -55 53 0 -3 -12 5 -26 18 -47 44 -262 134 -285
119 -4 -2 -10 0 -13 4 -3 5 -47 14 -98 21 -51 7 -101 14 -110 16 -10 2 -18 1
-18 -2 0 -11 48 -62 54 -57 3 2 4 1 2 -2 -3 -3 6 -26 20 -51 13 -25 24 -52 24
-59 0 -8 4 -14 8 -14 4 0 8 -10 9 -22 3 -37 45 -128 56 -121 5 3 7 1 4 -4 -4
-6 1 -19 11 -31 9 -11 30 -36 45 -56 30 -37 156 -126 180 -126 7 0 18 -5 23
-10 13 -13 131 -23 138 -11 8 13 -19 73 -29 64 -4 -5 -5 -2 -1 5 5 8 1 21 -7
30 -8 9 -18 27 -22 40 -3 12 -11 19 -17 16 -7 -4 -8 -2 -4 4 4 6 -2 20 -14 32
-11 11 -20 23 -19 26 1 3 -17 26 -40 50 -23 25 -41 46 -41 47 0 2 9 3 19 3 11
0 17 -4 15 -8 -3 -4 -1 -8 3 -8 5 0 24 -15 43 -34 19 -19 39 -32 45 -28 5 3 7
2 3 -3 -4 -4 7 -25 25 -46 33 -38 107 -165 108 -184 0 -5 6 -16 12 -24 7 -7
12 -19 12 -25 1 -16 17 -69 24 -81 3 -5 6 -14 7 -20 1 -5 9 -44 17 -85 39
-184 52 -336 33 -375 -5 -11 -16 -45 -23 -75 -21 -84 -21 -85 -23 -90 -1 -3
-3 -9 -4 -15 -1 -5 -7 -29 -14 -53 -7 -23 -10 -47 -7 -52 3 -6 1 -10 -5 -10
-7 0 -10 -7 -7 -15 4 -8 2 -17 -2 -19 -5 -3 -9 -17 -10 -31 -4 -57 -6 -65 -13
-65 -4 0 -7 -3 -7 -7 1 -5 0 -10 -1 -13 -3 -8 -10 -42 -15 -70 -2 -14 -5 -25
-6 -25 -2 0 -5 -18 -13 -65 -2 -14 -5 -25 -6 -25 -1 0 -4 -13 -6 -30 -2 -16
-6 -48 -9 -70 -23 -166 -23 -412 0 -565 4 -25 7 -57 7 -72 0 -16 3 -28 7 -28
3 0 7 -10 7 -22 3 -47 9 -78 15 -78 4 0 6 -6 6 -12 -2 -23 15 -98 22 -98 4 0
8 -9 9 -20 4 -43 6 -50 13 -50 5 0 6 -6 3 -14 -3 -8 0 -17 5 -21 6 -3 9 -11 6
-16 -4 -5 -1 -9 5 -9 6 0 8 -5 5 -10 -4 -6 -3 -16 2 -23 5 -7 20 -40 33 -74
14 -35 28 -63 32 -63 4 0 4 -7 1 -17 -4 -11 -3 -14 5 -9 8 5 10 2 6 -8 -4 -10
-1 -16 7 -16 7 0 9 -3 6 -7 -4 -3 1 -12 11 -20 9 -8 11 -11 3 -8 -8 5 -7 -2 5
-21 10 -16 21 -31 24 -34 3 -3 6 -11 8 -19 2 -8 12 -27 23 -42 10 -15 19 -30
19 -34 0 -4 8 -14 18 -22 9 -8 11 -11 4 -8 -7 4 -1 -11 15 -33 15 -22 32 -37
37 -34 5 3 7 -2 3 -11 -4 -10 1 -21 12 -29 10 -7 20 -17 22 -23 2 -5 8 -9 12
-7 5 1 6 -2 3 -7 -3 -5 7 -23 23 -40 15 -16 27 -32 24 -34 -2 -2 4 -10 14 -18
15 -12 16 -12 8 1 -5 9 -5 12 1 7 5 -5 9 -12 9 -15 0 -14 32 -52 38 -45 4 3 7
1 7 -6 0 -16 26 -42 34 -34 3 4 6 -1 6 -10 0 -9 7 -17 15 -17 8 0 14 -6 12
-12 -1 -7 4 -12 11 -10 8 1 11 -2 8 -7 -6 -9 23 -39 31 -33 3 2 8 0 11 -4 4
-4 0 -3 -8 1 -13 8 -13 6 -1 -8 7 -9 17 -14 22 -11 5 3 9 -2 9 -10 0 -9 6 -16
14 -16 7 0 21 -11 30 -25 9 -14 23 -25 32 -25 8 0 17 -6 20 -14 3 -8 24 -27
47 -43 40 -27 48 -32 81 -60 8 -7 20 -13 26 -13 5 0 10 -5 10 -11 0 -5 5 -7
10 -4 6 3 13 -1 16 -9 3 -9 14 -16 24 -16 10 0 23 -7 30 -15 7 -9 29 -23 49
-32 20 -9 39 -22 43 -27 4 -6 8 -7 8 -3 0 5 7 1 16 -7 8 -9 20 -14 25 -11 5 4
9 1 9 -5 0 -6 5 -8 10 -5 5 3 10 3 10 -2 0 -4 11 -13 25 -20 19 -8 23 -8 18 0
-3 7 2 5 13 -4 22 -19 55 -33 68 -30 5 1 12 -3 16 -9 4 -6 13 -12 21 -13 8 -2
20 -6 27 -10 6 -5 12 -5 12 -1 0 3 12 -1 26 -11 14 -9 28 -14 31 -11 4 3 12 1
18 -4 7 -6 24 -11 39 -12 14 -1 26 -6 26 -11 0 -4 4 -6 9 -2 5 3 12 1 16 -4 3
-5 13 -10 23 -10 39 -1 52 -5 52 -14 0 -5 7 -7 15 -3 8 3 15 2 15 -3 0 -4 6
-8 13 -9 22 -2 42 -7 55 -15 6 -5 16 -6 21 -2 5 3 12 1 16 -5 4 -6 10 -8 15
-5 5 3 11 1 15 -4 3 -5 14 -8 25 -6 11 2 20 -1 20 -7 0 -6 9 -8 20 -5 11 3 22
1 25 -3 3 -5 24 -12 48 -16 48 -9 56 -11 60 -13 1 -2 13 -4 27 -7 14 -2 36 -7
50 -10 14 -4 34 -9 45 -10 11 -2 34 -6 50 -9 17 -3 41 -8 55 -10 14 -2 43 -7
65 -10 22 -4 54 -9 70 -10 17 -2 30 -4 30 -5 0 -2 50 -7 160 -16 103 -8 381
-9 467 -1 63 6 68 5 79 -16 14 -26 69 -84 69 -73 0 5 9 -2 21 -15 11 -13 18
-17 14 -9 -5 12 -4 12 7 -1 11 -14 37 -26 73 -35 6 -2 21 -6 35 -10 59 -18
230 -7 315 20 6 1 27 6 47 10 21 5 36 11 34 15 -2 3 8 7 22 8 15 0 28 6 30 12
2 5 10 7 18 4 8 -3 14 1 14 8 0 7 3 10 6 6 7 -6 149 66 175 89 8 8 21 14 27
14 6 0 16 8 21 18 6 9 11 13 11 9 0 -11 74 47 123 95 20 21 37 36 37 33 0 -3
11 5 25 19 14 14 25 30 25 36 0 6 5 8 10 5 6 -3 10 -3 10 2 0 4 17 26 37 48
73 80 88 98 73 91 -9 -5 -8 -2 2 7 10 8 14 18 10 22 -4 5 -1 5 5 1 8 -4 17 2
25 18 6 14 16 26 21 26 6 0 8 3 5 6 -3 3 7 19 23 37 16 17 29 37 29 43 0 6 7
17 15 24 9 7 13 15 11 17 -2 3 4 13 15 24 11 11 17 25 13 31 -4 6 -3 8 4 4 11
-6 28 30 23 49 -1 6 0 7 4 3 4 -4 14 -1 22 7 10 10 20 12 38 5 14 -5 62 -7
107 -4 186 11 266 6 296 -18 6 -6 12 -7 12 -3 0 9 -41 68 -53 76 -5 3 -9 10
-9 15 -1 15 -24 44 -31 39 -4 -3 -5 -2 -2 1 8 12 -16 45 -27 38 -6 -4 -8 -3
-5 3 3 5 -5 22 -19 38 -13 15 -24 32 -24 37 0 4 -6 8 -14 8 -8 0 -18 5 -22 12
-5 7 -3 8 7 3 8 -5 1 5 -16 22 -16 16 -32 29 -34 27 -2 -2 -12 7 -22 19 -10
12 -18 18 -19 12 0 -5 -7 1 -16 13 -8 12 -19 20 -24 17 -4 -3 -11 2 -14 11 -3
8 -10 12 -16 9 -5 -3 -10 -2 -10 2 0 9 -62 38 -115 55 -48 15 -167 19 -199 6
-17 -7 -42 -26 -57 -42 -25 -28 -32 -31 -100 -33 -41 -1 -94 -5 -119 -8 -25
-3 -57 -7 -72 -7 -16 -1 -28 -4 -28 -8 0 -3 -10 -6 -22 -7 -13 -1 -33 -4 -45
-8 -18 -6 -21 -4 -16 14 3 12 10 21 15 21 5 0 6 5 3 10 -3 6 -1 10 4 10 6 0
11 6 11 13 0 7 11 24 24 39 14 14 22 29 19 32 -4 3 0 6 7 6 7 0 10 3 7 7 -4 3
1 12 11 20 10 9 11 12 2 7 -12 -6 -12 -4 1 12 9 10 27 39 40 64 13 25 29 48
34 52 6 5 6 8 1 8 -6 0 -1 7 10 16 10 8 12 13 4 9 -10 -4 -9 -2 2 8 10 8 15
17 11 20 -3 4 -1 7 6 7 7 0 9 5 6 10 -3 6 -1 10 5 10 6 0 8 5 5 10 -3 5 -1 10
5 10 6 0 8 5 5 10 -3 6 1 13 10 16 9 4 14 13 11 20 -3 8 -1 14 5 14 6 0 7 5 4
10 -3 6 -1 10 5 10 6 0 8 5 5 10 -3 6 1 13 10 16 9 4 14 13 11 20 -3 8 -1 14
5 14 6 0 7 4 4 10 -3 6 -1 10 4 10 6 0 10 3 10 8 -4 21 2 32 13 26 8 -5 9 -2
5 9 -3 10 -2 17 4 17 6 0 8 4 4 9 -3 5 -1 12 5 16 5 3 10 15 10 26 0 10 5 19
11 19 5 0 7 5 4 10 -3 6 -1 10 5 10 6 0 9 4 5 9 -3 5 -1 12 5 16 6 4 8 11 5
16 -4 5 -1 9 5 9 6 0 9 4 6 9 -3 5 1 14 9 21 8 7 12 16 9 21 -2 5 2 19 11 32
8 13 12 27 8 30 -3 4 -1 7 6 7 7 0 10 4 7 8 -3 5 1 20 9 35 8 15 12 27 9 27
-2 0 5 18 16 40 11 22 18 40 14 40 -4 0 -1 7 6 15 7 8 10 15 6 15 -4 0 3 18
15 41 12 25 15 38 7 33 -10 -6 -10 -4 1 9 7 9 10 17 6 17 -4 0 -2 7 5 15 7 8
9 15 5 15 -4 0 -1 7 6 17 8 9 13 18 12 20 -2 1 -3 4 -2 6 3 9 11 45 13 62 2
11 4 20 5 20 3 0 6 12 15 53 10 44 17 62 27 62 5 0 9 6 9 14 0 8 7 16 15 20 8
3 14 11 13 18 -2 7 3 12 10 10 6 -1 12 6 12 15 1 22 25 55 33 46 4 -3 7 -1 7
5 0 7 11 22 25 34 13 11 22 25 20 29 -3 4 4 11 16 14 11 4 18 9 16 12 -9 8
182 190 195 185 4 -1 12 7 18 18 6 11 15 18 21 15 5 -4 9 -1 9 4 0 6 7 11 15
11 8 0 15 4 15 8 0 7 38 30 60 37 29 9 60 26 60 34 0 5 6 8 13 8 20 -1 77 15
77 22 0 3 12 7 28 8 15 1 51 4 80 6 28 2 52 0 52 -3 0 -4 -25 -13 -55 -20 -30
-7 -55 -17 -55 -22 0 -4 -3 -7 -7 -7 -25 4 -43 -2 -37 -13 4 -6 3 -9 -2 -5
-13 8 -81 -25 -100 -49 -8 -10 -13 -13 -9 -6 11 21 -5 13 -32 -15 -15 -16 -23
-22 -18 -14 5 9 -2 7 -17 -5 -14 -10 -23 -24 -21 -31 6 -15 85 -54 122 -61 49
-8 201 -12 201 -4 0 4 15 8 33 8 71 3 246 91 231 117 -4 6 -4 9 1 5 6 -6 59
29 122 82 7 6 16 11 20 11 5 1 18 5 31 10 13 5 34 12 48 15 29 8 27 28 -4 32
-12 2 -22 8 -22 14 0 5 -7 7 -16 4 -8 -3 -13 -2 -10 3 5 7 -15 16 -54 26 -3 0
-15 6 -28 13 -12 7 -27 10 -32 7 -6 -3 -10 -2 -10 3 0 5 -10 12 -22 15 -13 3
-48 12 -78 21 -75 22 -226 39 -244 28 -5 -3 -25 -6 -45 -8 -53 -3 -103 -14
-126 -27 -11 -6 -22 -12 -25 -13 -3 -1 -15 -5 -27 -9 -13 -4 -23 -12 -23 -17
0 -5 -4 -7 -9 -3 -5 3 -21 -9 -36 -27 -15 -18 -24 -27 -19 -19 5 9 3 12 -4 7
-7 -4 -12 -13 -12 -20 0 -8 -7 -19 -15 -26 -8 -7 -13 -16 -10 -20 3 -5 1 -11
-4 -14 -5 -3 -7 -19 -6 -36 2 -20 -2 -30 -11 -30 -7 0 -18 -8 -23 -17 -6 -10
-11 -13 -11 -8 0 6 -10 -1 -21 -15 -11 -14 -18 -18 -14 -10 4 8 -3 4 -15 -10
-12 -14 -19 -18 -15 -10 4 8 -12 -5 -35 -30 -24 -25 -40 -38 -36 -30 5 8 -9
-3 -29 -25 -21 -22 -34 -34 -30 -26 5 9 4 12 -3 7 -7 -4 -12 -13 -12 -19 0
-14 -61 -72 -72 -69 -5 1 -8 -5 -8 -13 0 -8 -5 -15 -11 -15 -5 0 -8 -4 -5 -8
3 -5 -2 -9 -10 -9 -12 0 -13 10 -9 46 10 76 17 144 18 178 1 23 9 36 31 49 21
12 27 13 21 3 -5 -8 2 -5 16 6 33 28 108 107 107 114 -2 20 3 31 12 26 8 -5
29 54 35 100 1 11 3 20 5 20 1 0 4 20 7 45 11 85 5 222 -13 300 -3 14 -8 41
-11 60 -3 19 -9 37 -14 38 -5 2 -7 8 -3 13 3 5 2 15 -3 22 -4 6 -9 21 -10 32
-2 11 -8 21 -13 23 -5 2 -7 9 -4 17 3 7 1 16 -5 20 -6 3 -11 15 -11 26 0 10
-5 19 -11 19 -5 0 -8 4 -5 9 6 9 -22 71 -37 82 -5 3 -9 10 -9 15 -1 19 -22 54
-31 54 -6 0 -7 3 -4 7 4 3 -1 12 -11 20 -9 8 -11 11 -3 7 7 -4 3 7 -10 25 -12
17 -27 31 -31 31 -5 0 -7 4 -4 8 3 5 -6 20 -20 35 -13 14 -24 30 -24 34 0 4
-9 16 -20 28 -11 11 -39 42 -62 70 -57 65 -153 164 -143 146 5 -9 4 -12 -3 -7
-7 4 -12 12 -12 17 0 14 -26 39 -41 39 -7 0 -9 3 -6 7 7 6 -31 38 -45 38 -3 0
-10 4 -15 9 -5 5 -2 6 7 2 8 -4 4 2 -10 14 -14 12 -37 33 -52 46 -16 13 -28
22 -28 19 0 -3 -13 7 -29 22 -36 35 -92 79 -157 125 l-51 36 18 -60z m-3241
-821 c0 -2 -10 -12 -22 -23 l-23 -19 19 23 c18 21 26 27 26 19z m3720 -73 c0
-3 -3 -3 -8 0 -4 2 7 -26 25 -62 18 -37 38 -88 45 -114 6 -27 15 -48 19 -48 4
0 5 -9 2 -20 -3 -11 -1 -20 3 -20 5 0 10 -10 10 -22 1 -13 4 -33 7 -45 21 -82
28 -401 12 -528 -4 -33 -8 -73 -10 -90 -2 -16 -4 -30 -5 -30 -2 0 -4 -12 -13
-70 -2 -11 -5 -25 -9 -30 -3 -6 -4 -20 -3 -32 1 -13 -2 -23 -6 -23 -4 0 -6 -9
-4 -20 2 -11 1 -20 -3 -20 -7 0 -12 -20 -15 -62 -1 -10 -5 -18 -9 -18 -4 0 -8
-10 -8 -23 0 -13 -6 -29 -12 -36 -11 -11 -10 -12 1 -6 11 6 11 3 -2 -14 -8
-13 -13 -30 -10 -37 3 -8 0 -14 -7 -14 -6 0 -9 -4 -5 -9 3 -5 1 -12 -4 -16 -6
-3 -8 -12 -4 -20 3 -8 0 -15 -6 -15 -6 0 -11 -7 -11 -15 0 -24 -16 -17 -17 8
-1 12 -4 45 -7 74 -3 33 -1 55 6 59 7 5 8 2 3 -7 -8 -12 -6 -12 8 0 9 7 15 17
12 21 -3 5 -1 11 5 15 6 4 8 11 5 16 -4 5 -1 9 4 9 9 0 9 28 1 50 -2 3 -2 9
-1 14 1 4 -4 14 -10 22 -6 8 -8 14 -4 14 4 0 1 7 -6 16 -7 9 -14 23 -15 31 -1
8 -12 23 -24 33 -12 10 -21 21 -21 24 3 19 0 27 -7 22 -5 -3 -9 0 -9 7 0 7 -4
26 -8 42 -4 17 -7 38 -7 48 1 9 -4 17 -10 17 -6 0 -9 3 -5 6 3 3 -1 24 -9 46
-19 54 -25 88 -15 88 5 0 21 -10 37 -22 15 -13 24 -16 20 -8 -5 8 1 5 13 -8
12 -12 26 -20 32 -17 5 4 9 1 9 -5 0 -7 7 -10 15 -7 8 4 17 2 20 -3 10 -16 24
-11 23 8 0 9 3 40 6 67 20 161 25 364 12 485 -4 36 -7 72 -8 80 -1 25 -28 142
-44 188 -18 54 -18 55 6 42 11 -6 20 -13 20 -16z m60 -2758 c19 -3 36 -5 38
-5 1 -1 4 -1 7 -1 3 -1 23 -7 46 -15 23 -8 46 -12 52 -8 5 3 7 1 4 -4 -4 -6 5
-14 21 -18 26 -6 26 -7 8 -21 -12 -9 -22 -10 -26 -4 -8 12 -69 20 -193 24
l-97 4 6 -33 c6 -32 5 -33 -28 -29 -74 9 -155 15 -198 13 -25 -1 -62 -2 -82
-2 -21 -1 -38 -4 -38 -7 0 -3 -12 -6 -27 -6 -16 -1 -39 -5 -53 -8 -58 -16 -67
-16 -67 -1 0 8 7 15 14 15 8 0 12 4 9 9 -5 8 40 26 57 23 4 -1 7 3 7 9 0 5 5
7 10 4 6 -4 17 -1 25 5 8 7 15 9 15 5 0 -4 6 -2 13 4 8 6 17 8 20 4 4 -3 12
-1 19 4 7 6 21 9 31 8 9 -2 17 1 17 6 0 6 5 7 10 4 6 -3 16 -3 23 2 6 4 23 8
37 9 32 2 124 15 128 18 3 4 150 -3 192 -8z m-494 -623 c-2 -10 -7 -18 -12
-18 -13 -1 -104 -68 -104 -77 0 -4 -3 -7 -7 -6 -16 5 -92 -36 -86 -45 3 -6 1
-7 -5 -3 -12 7 -62 -13 -62 -25 0 -5 -6 -6 -14 -3 -7 3 -20 -1 -27 -8 -8 -7
-25 -14 -39 -16 -14 -1 -26 -6 -28 -11 -2 -5 -12 -7 -22 -4 -11 3 -20 1 -20
-5 0 -6 -8 -9 -17 -7 -10 1 -22 0 -28 -4 -5 -3 -21 -7 -34 -9 -14 -2 -33 -8
-43 -13 -10 -5 -23 -7 -28 -4 -6 3 -15 3 -22 -1 -7 -4 -24 -9 -38 -10 -14 -2
-50 -6 -80 -9 -72 -9 -440 -9 -510 -1 -30 4 -73 9 -95 12 -22 3 -55 7 -73 8
-58 5 -34 27 30 28 15 0 26 4 23 7 -2 4 6 7 18 6 12 -1 27 0 32 4 6 3 15 6 20
7 49 10 60 13 60 14 0 1 11 3 24 6 14 2 30 9 36 14 7 5 15 7 18 3 4 -3 13 0
22 7 8 7 15 9 15 5 0 -4 7 -2 15 5 8 7 15 10 15 6 0 -4 11 1 25 10 14 9 25 13
25 10 0 -4 10 -1 23 6 12 7 25 11 30 10 4 -1 7 3 7 9 0 6 7 9 15 5 8 -3 15 -1
15 5 0 6 5 7 10 4 6 -3 10 -1 10 6 0 7 3 9 6 6 4 -3 16 0 28 8 39 28 42 17 17
-62 -5 -18 -6 -35 -1 -38 14 -8 190 3 325 20 28 4 58 7 68 7 9 -1 17 3 17 7 0
4 10 7 23 8 12 0 36 3 52 7 17 4 41 9 54 12 14 3 28 7 33 10 5 3 20 8 35 10
15 3 31 8 37 12 6 3 16 7 21 8 6 1 24 8 40 15 17 7 33 12 38 11 4 -1 7 3 7 9
0 5 5 7 10 4 6 -3 10 -1 10 5 0 6 5 8 10 5 6 -3 10 -1 10 5 0 6 5 8 10 5 6 -3
10 -1 10 5 0 6 4 9 9 5 5 -3 12 -1 16 5 10 16 23 12 21 -7z"/>
<path d="M4230 4846 c0 -2 8 -10 18 -17 15 -13 16 -12 3 4 -13 16 -21 21 -21
13z"/>
<path d="M4290 4786 c0 -2 8 -10 18 -17 15 -13 16 -12 3 4 -13 16 -21 21 -21
13z"/>
<path d="M4330 4746 c0 -2 8 -10 18 -17 15 -13 16 -12 3 4 -13 16 -21 21 -21
13z"/>
<path d="M4919 2073 c-13 -16 -12 -17 4 -4 16 13 21 21 13 21 -2 0 -10 -8 -17
-17z"/>
</g>
</svg>
